<?xml version="1.0" encoding="UTF-8"?>
<svg xmlns="http://www.w3.org/2000/svg" width="18" height="20" viewBox="0 0 18 20" fill="none">
  <path d="M6.42469 0.422882H5.09204V17.7571H6.42469V0.422882Z" fill="#134A5D"></path>
  <path d="M0.38916 19.3903C0.38916 19.3903 1.80044 17.1954 3.75939 17.1954C5.09204 17.1954 6.18876 17.5085 7.44277 17.1954C8.69678 16.8822 9.6601 16.5593 11.1262 16.8036C13.4769 17.1954 15.2013 19.3903 15.2013 19.3903H0.38916Z" fill="#134A5D"></path>
  <path d="M7.28687 0.970556C7.28687 0.970556 9.32445 0.342851 10.9702 0.42149C12.616 0.500128 13.0078 0.891917 14.4978 0.970556C15.9877 1.04919 17.0058 0.832938 17.0058 0.832938V7.4751C17.0058 7.4751 16.2222 8.24323 14.0273 8.16459C11.8325 8.08595 11.9406 7.7405 10.6866 7.7405C9.43258 7.7405 7.28687 8.33872 7.28687 8.33872V0.970556Z" fill="#134A5D"></path>
</svg>
