<?xml version="1.0" encoding="UTF-8"?>
<svg xmlns="http://www.w3.org/2000/svg" width="21" height="20" viewBox="0 0 21 20" fill="none">
  <path d="M20.4723 10.1811L10.4238 0.132568L10.4066 0.14975L10.3894 0.132568L0.34082 10.1811L1.37436 11.216L10.4066 2.18378L19.4375 11.216L20.4723 10.1811Z" fill="#134A5D"></path>
  <path d="M8.41081 18.2433C9.28443 18.3305 9.65978 18.3635 10.0338 18.2433C10.0483 18.238 10.0655 18.234 10.0801 18.2287C10.1461 17.6604 10.1567 17.0815 10.129 16.5092C10.0946 15.8061 9.95451 15.0911 9.86067 14.3655C9.84613 14.2518 9.83292 14.1382 9.8197 14.0245C9.61352 14.1461 8.61831 14.7038 7.59931 14.8334C6.45476 14.9788 5.82961 13.7721 5.72652 13.2302C5.62211 12.6896 5.3102 11.5861 5.3102 11.5861C5.3102 11.5861 6.20496 11.8768 6.4759 11.9403C6.74684 12.0037 7.45393 11.8993 8.28658 12.0645C8.98441 12.2046 9.61749 13.4694 9.80384 13.8752C9.74569 13.3029 9.72322 12.724 9.83424 12.1557C9.91222 11.7883 10.051 11.3865 10.1779 11.0442C10.2479 10.8578 10.3219 10.6979 10.3933 10.5657C9.72851 10.8367 8.95666 10.312 8.8126 9.92077C8.66721 9.52559 8.41742 9.00486 8.41742 9.00486C8.41742 9.00486 9.52101 8.98371 9.95715 9.25465C10.351 9.49784 10.4065 10.3596 10.4131 10.5274C10.5004 10.3688 10.581 10.2525 10.6391 10.1758C10.7079 10.0186 10.9616 9.4225 11.1559 8.66255C11.2801 8.17882 11.9145 7.59597 12.8093 7.59597C12.8093 7.59597 13.0538 8.98371 12.3097 9.40664C11.5868 9.81768 10.8453 10.1269 10.6629 10.201C10.5717 10.3926 10.4039 10.7746 10.2611 11.2451C10.2783 11.2451 10.918 11.2424 11.3898 11.0574C11.8683 10.8697 12.5555 10.912 13.0128 11.6402C13.0128 11.6402 12.4551 12.494 11.485 12.2852C10.5453 12.0843 10.2757 11.2966 10.2585 11.2477C10.1937 11.4605 10.1343 11.6918 10.0893 11.931C9.94658 12.6989 10.0179 13.5236 10.1871 14.3074C10.2387 14.5519 10.2942 14.7964 10.351 15.0396C10.4277 15.0343 10.8228 14.984 11.0488 14.4778C11.2986 13.9161 11.9026 13.2209 12.6309 13.2143C13.3591 13.2077 14.1508 13.1456 14.3583 12.8337C14.3583 12.8337 14.5658 15.477 13.1516 15.9766C11.8313 16.4432 10.5255 15.2233 10.3563 15.0581C10.462 15.5206 10.5664 15.9845 10.6272 16.4603C10.6973 16.9996 10.729 17.5441 10.7198 18.0886C11.0845 18.0516 11.555 18.0688 12.1524 18.2353C13.1648 18.5168 13.8851 19.1539 13.975 19.2345H18.7753L18.7211 11.7896L10.4065 3.47504H10.3946L2.08007 11.7896L2.02588 19.2345H6.54066C6.62393 19.1459 7.57024 18.1573 8.40553 18.2406L8.41081 18.2433Z" fill="#134A5D"></path>
</svg>
