<?xml version="1.0" encoding="UTF-8"?>
<svg xmlns="http://www.w3.org/2000/svg" width="263" height="53" viewBox="0 0 263 53" fill="none">
  <g clip-path="url(#clip0_2445_5673)">
    <path d="M29.0562 34.2518C29.1072 34.1127 29.1422 34.0077 29.1852 33.9084C30.5995 30.531 32.0218 27.1537 33.4253 23.7707C33.5383 23.4983 33.6727 23.4018 33.9469 23.4245C34.3852 23.4585 34.9176 23.2911 35.2348 23.5039C35.5387 23.7054 35.6193 24.2816 35.7941 24.6959C37.082 27.7639 38.3672 30.829 39.6524 33.897C39.6954 33.9992 39.7277 34.1042 39.7815 34.2518C39.1711 34.2518 38.5957 34.2603 38.0203 34.2433C37.9504 34.2433 37.8536 34.1212 37.8187 34.0332C37.5256 33.3266 37.2406 32.617 36.9664 31.9047C36.8965 31.7202 36.8077 31.6492 36.6115 31.6492C35.138 31.6578 33.6646 31.6578 32.1912 31.6492C32.0137 31.6492 31.925 31.706 31.8551 31.8791C31.5728 32.5886 31.2717 33.2925 30.9893 34.002C30.9194 34.1808 30.8361 34.2631 30.6371 34.2574C30.1236 34.2404 29.6073 34.2518 29.0508 34.2518H29.0562ZM36.1571 29.9634C35.5629 28.5245 34.9902 27.131 34.3825 25.6524C33.7722 27.1395 33.1995 28.533 32.6106 29.9634H36.1571Z" fill="white"></path>
    <path d="M77.9347 34.252C77.3593 34.252 76.8109 34.2634 76.2624 34.2407C76.1709 34.2378 76.0446 34.1186 76.0016 34.0222C75.7031 33.3183 75.4181 32.6088 75.1439 31.8964C75.0713 31.712 74.9771 31.6467 74.7862 31.6467C73.3236 31.6552 71.8609 31.6552 70.4009 31.6467C70.1939 31.6467 70.0971 31.7205 70.0218 31.9163C69.7449 32.6173 69.4465 33.307 69.1722 34.008C69.0996 34.1924 69.0082 34.2634 68.8173 34.2577C68.3037 34.2435 67.7875 34.252 67.2363 34.252C67.2955 34.0959 67.3385 33.9711 67.3896 33.8519C68.8012 30.4831 70.2154 27.1171 71.6189 23.7454C71.7211 23.4985 71.8394 23.4049 72.0922 23.4219C72.4766 23.4474 72.8665 23.4162 73.2537 23.4361C73.3451 23.4418 73.4795 23.5241 73.5145 23.6092C74.9906 27.1086 76.4559 30.6108 77.924 34.1158C77.9347 34.1442 77.9294 34.1811 77.9347 34.2549V34.252ZM72.5627 25.6498C71.9658 27.1256 71.3985 28.5276 70.8204 29.9609H74.3641C73.7645 28.5219 73.1784 27.1199 72.5654 25.6498H72.5627Z" fill="white"></path>
    <path d="M82.082 32.7222C82.4585 32.2596 82.8053 31.8282 83.1737 31.3741C83.3027 31.4791 83.4156 31.5784 83.5339 31.6721C84.5718 32.5037 85.7199 32.9294 87.0293 32.6881C87.2847 32.6399 87.5509 32.5292 87.766 32.3731C88.4812 31.8622 88.4624 30.7526 87.6907 30.3495C87.1126 30.0459 86.4593 29.8983 85.8409 29.6854C85.2493 29.4811 84.6444 29.3193 84.069 29.0752C81.9342 28.1784 82.1089 25.2154 83.6119 24.1114C84.2303 23.6573 84.9159 23.4189 85.658 23.3735C87.0427 23.2884 88.3225 23.6346 89.4572 24.5031C89.5405 24.5684 89.6212 24.6393 89.7234 24.7273L88.7769 26.118C88.6506 26.0328 88.5376 25.9562 88.4247 25.8796C87.5616 25.2977 86.6421 24.9345 85.5935 25.0537C84.7788 25.1473 84.2787 25.6809 84.3056 26.416C84.3217 26.9069 84.5691 27.2447 84.9697 27.4121C85.5666 27.659 86.1877 27.8435 86.798 28.0592C87.3869 28.2692 87.9945 28.4367 88.5592 28.7035C90.7021 29.7195 90.3767 32.7931 88.785 33.7439C88.3091 34.0277 87.7633 34.2548 87.2256 34.3342C85.3031 34.6265 83.5958 34.0589 82.082 32.7222Z" fill="white"></path>
    <path d="M47.4952 34.2405H45.6884V25.2324H42.4512V23.5125H50.7539V25.2352H47.4952V34.2405Z" fill="white"></path>
    <path d="M62.968 32.5318V34.2233H55.7676V23.5067H57.5394V32.5318H62.968Z" fill="white"></path>
    <path d="M164.176 23.5381C166.007 23.5154 167.835 23.3309 169.645 23.6545C170.771 23.856 171.667 24.486 172.024 25.7263C172.449 27.1936 171.82 28.624 170.457 29.2568C170.051 29.447 169.607 29.5463 169.139 29.7024C170.236 31.1924 171.339 32.6909 172.484 34.2462C172.164 34.2462 171.909 34.2689 171.661 34.2349C171.556 34.2207 171.443 34.1128 171.371 34.0163C170.403 32.6994 169.435 31.3797 168.478 30.0544C168.341 29.8642 168.198 29.7847 167.967 29.7876C167.053 29.8018 166.139 29.7932 165.227 29.7932C165.122 29.7932 165.017 29.8046 164.878 29.8131V34.2263H164.176V23.5381ZM164.896 29.0468C164.945 29.0639 164.974 29.0837 165.004 29.0837C166.27 29.0837 167.539 29.1008 168.806 29.0667C169.389 29.0525 169.946 28.8567 170.435 28.4991C171.121 27.9967 171.427 27.2929 171.371 26.4244C171.314 25.556 170.892 24.9089 170.131 24.5939C169.65 24.398 169.12 24.2703 168.607 24.2476C167.448 24.1965 166.289 24.2306 165.128 24.2306C165.055 24.2306 164.982 24.2448 164.896 24.2533V29.044V29.0468Z" fill="white"></path>
    <path d="M123.664 23.5296C124.089 23.4331 124.393 23.5097 124.688 23.9071C126.826 26.7792 128.996 29.6286 131.152 32.4838C131.23 32.5859 131.313 32.6853 131.453 32.8641V23.5211H132.182V34.2292C131.854 34.3313 131.62 34.2519 131.389 33.9454C129.152 30.9824 126.896 28.0336 124.648 25.0792C124.576 24.9855 124.503 24.8947 124.36 24.8238V34.2434H123.664V23.5296Z" fill="white"></path>
    <path d="M185.001 33.5566V34.2406H177.631V23.5154H184.917V24.2221H178.403V28.4509H184.248V29.1859H178.392C178.384 29.3307 178.376 29.4413 178.376 29.5492C178.376 30.7639 178.381 31.9786 178.37 33.1933C178.368 33.4714 178.443 33.5622 178.712 33.5594C180.669 33.5481 182.626 33.5537 184.584 33.5537H185.001V33.5566Z" fill="white"></path>
    <path d="M111.717 33.5535H118.334V34.2403H110.98V23.5237H118.253V24.2162H111.717V28.4592H117.597V29.1914H111.717V33.5535Z" fill="white"></path>
    <path d="M158.015 23.5126C158.122 23.5069 158.184 23.4984 158.246 23.4984C158.407 23.4984 158.569 23.4984 158.779 23.4984V23.8759C158.779 25.8285 158.795 27.7811 158.768 29.7308C158.76 30.2928 158.695 30.8689 158.558 31.411C158.09 33.2614 156.735 34.3683 154.84 34.425C154.248 34.4421 153.624 34.3796 153.06 34.2008C151.419 33.6843 150.583 32.4185 150.349 30.6731C150.298 30.2928 150.29 29.904 150.288 29.518C150.282 27.6449 150.288 25.7717 150.288 23.8986V23.5126H151.054V23.9156C151.054 25.8228 151.04 27.73 151.062 29.6372C151.067 30.1537 151.126 30.6816 151.247 31.1811C151.616 32.6825 152.713 33.6162 154.181 33.6928C154.627 33.7155 155.09 33.6928 155.525 33.5963C156.934 33.2756 157.859 32.1461 157.95 30.5539C158.026 29.2654 158.001 27.9684 158.01 26.6742C158.018 25.6298 158.01 24.5882 158.01 23.5069L158.015 23.5126Z" fill="white"></path>
    <path d="M105.718 23.5125C105.565 23.8871 105.427 24.2192 105.29 24.5484C103.97 27.6987 102.645 30.849 101.332 34.0049C101.23 34.2518 101.112 34.3398 100.859 34.337C100.612 34.3341 100.486 34.2632 100.381 34.0106C98.9771 30.6361 97.5629 27.2701 96.1513 23.9013C96.1029 23.7878 96.0626 23.6743 95.998 23.504C96.2615 23.504 96.4955 23.4784 96.7159 23.5182C96.8047 23.5324 96.8988 23.68 96.9418 23.7878C98.0737 26.5549 99.2003 29.3249 100.33 32.0949C100.499 32.5092 100.668 32.9208 100.867 33.4061C100.948 33.2102 101.004 33.0854 101.056 32.9577C102.279 29.972 103.502 26.9863 104.728 24.0007C104.866 23.6639 105.114 23.4974 105.47 23.5012C105.535 23.5012 105.599 23.5068 105.718 23.5125Z" fill="white"></path>
    <path d="M140.736 24.2249H137.16V23.5154H145.065V24.2221H141.494C141.494 25.9051 141.494 27.5682 141.494 29.2285C141.494 30.8888 141.494 32.5576 141.494 34.2434H140.736V24.2249Z" fill="white"></path>
    <path d="M11.0997 25.6895C11.1454 24.3045 11.6832 23.1579 12.7237 22.3264C14.7591 20.703 16.98 20.5668 19.3084 21.5204C19.5208 21.6083 19.6714 21.7644 19.5611 22.017C19.4509 22.2725 19.2465 22.2185 19.0368 22.1334C17.2596 21.4239 15.5038 21.404 13.8126 22.3945C12.4602 23.1892 11.6912 24.3783 11.7665 26.0755C11.7773 26.3082 11.6832 26.4757 11.4412 26.4927C11.2046 26.5097 11.1185 26.3451 11.0997 26.1322C11.0863 25.9847 11.0997 25.8371 11.0997 25.6895Z" fill="white"></path>
    <path d="M8.44214 24.5541C8.49054 23.0131 8.95838 21.8296 9.85372 20.8561C10.8996 19.718 12.1606 19.0284 13.6986 19C13.8949 18.9972 14.0696 19.0312 14.1207 19.2725C14.1745 19.5251 14.0159 19.6868 13.7174 19.6982C12.244 19.7549 11.0502 20.4276 10.1199 21.6054C9.18692 22.7889 8.91536 24.1568 9.25682 25.6553C9.36975 26.1548 9.32942 26.3535 9.0713 26.3904C8.66799 26.45 8.67875 26.0782 8.63035 25.8228C8.53894 25.346 8.48516 24.8635 8.43945 24.5541H8.44214Z" fill="white"></path>
    <path d="M5.56055 24.2193C5.62776 22.403 6.21391 21.0123 7.2867 19.8629C7.53944 19.5904 7.89973 19.4201 8.23582 19.2527C8.32455 19.2101 8.57191 19.3265 8.60955 19.4258C8.64989 19.5365 8.57191 19.7948 8.47781 19.8459C7.23831 20.5156 6.67637 21.6963 6.37254 23.0245C6.05796 24.3953 6.25155 25.6838 7.22755 26.7481C7.36468 26.8985 7.42114 27.0716 7.27057 27.2277C7.08774 27.4179 6.8834 27.3441 6.73014 27.1766C6.27843 26.68 5.92084 26.1123 5.7622 25.4369C5.65465 24.9771 5.60626 24.5032 5.56055 24.2165V24.2193Z" fill="white"></path>
    <path d="M3.07886 24.7811C3.11381 23.697 3.29127 22.8285 3.64349 22.0026C3.67307 21.9317 3.71071 21.8607 3.74297 21.7898C3.83977 21.5911 3.99571 21.4918 4.19199 21.594C4.4044 21.7018 4.37751 21.8891 4.28072 22.085C3.96345 22.7377 3.77793 23.4302 3.72146 24.1624C3.58434 25.9476 4.31836 27.2645 5.69498 28.2294C5.88588 28.3656 6.18702 28.465 6.00688 28.78C5.84555 29.0638 5.59281 28.9276 5.38309 28.7914C3.89892 27.8349 3.1649 26.4187 3.07617 24.784L3.07886 24.7811Z" fill="white"></path>
    <path d="M1.60296 25.7034C1.56801 27.9001 3.06025 29.7817 5.0499 30.1166C5.25693 30.1507 5.4559 30.2188 5.43976 30.4742C5.42094 30.7552 5.20047 30.8035 4.98268 30.7722C3.98786 30.619 3.0952 30.2217 2.41496 29.4213C1.47121 28.3088 0.938848 27.0175 1.0222 25.4906C1.02758 25.4111 1.01413 25.3061 1.05715 25.2607C1.14588 25.167 1.27225 25.0365 1.37173 25.0478C1.46584 25.0592 1.58145 25.2181 1.61372 25.3345C1.65136 25.4679 1.60565 25.624 1.60027 25.7063L1.60296 25.7034Z" fill="white"></path>
    <path d="M4.25145 32.83C3.5228 32.8158 2.8802 32.5434 2.27793 32.1489C1.25084 31.4763 0.492618 30.5652 0.0543565 29.3676C-0.0209276 29.1576 -0.0505035 28.9447 0.186104 28.851C0.433466 28.7517 0.50875 28.9532 0.589412 29.1604C1.189 30.7043 2.22684 31.7572 3.77823 32.1489C4.17347 32.2482 4.62518 32.1404 5.04462 32.0893C5.25434 32.0638 5.45062 32.024 5.51514 32.2851C5.57699 32.5377 5.3834 32.6285 5.20056 32.6683C4.88598 32.7364 4.56603 32.779 4.25145 32.8329V32.83Z" fill="white"></path>
    <path d="M4.16362 34.831C2.84883 34.8338 1.62009 34.3315 0.579554 33.3126C0.434364 33.1707 0.375212 33.0089 0.533846 32.8443C0.692481 32.6797 0.837671 32.7592 0.982862 32.8983C2.00189 33.8604 3.17955 34.357 4.55617 34.1782C4.98099 34.1243 5.39505 33.9342 5.80642 33.7837C5.96775 33.7241 6.13176 33.5822 6.26619 33.7781C6.41407 33.9966 6.26619 34.1584 6.10756 34.2918C5.77416 34.5727 5.11542 34.7629 4.16631 34.831H4.16362Z" fill="white"></path>
    <path d="M4.31324 36.7691C3.54965 36.7663 2.942 36.6386 2.36661 36.3661C2.18647 36.281 1.98481 36.1817 2.10043 35.9177C2.20798 35.6736 2.40157 35.7247 2.59784 35.8127C3.66257 36.281 4.74344 36.3378 5.82699 35.8893C6.36474 35.668 6.84333 35.3615 7.1848 34.8421C7.24395 34.7541 7.45636 34.6888 7.55046 34.7314C7.73598 34.8165 7.72254 35.0266 7.59348 35.1571C7.28697 35.4693 6.99121 35.8184 6.63092 36.0454C5.88346 36.5137 5.05533 36.7521 4.31056 36.7691H4.31324Z" fill="white"></path>
    <path d="M5.46733 38.56C5.41087 38.5543 5.34365 38.5685 5.3087 38.5401C5.20384 38.4493 5.11242 38.3443 5.01562 38.2421C5.11511 38.1485 5.19846 38.0037 5.31407 37.9668C5.80342 37.8107 6.32234 37.737 6.79287 37.5354C7.69628 37.1438 8.35233 36.4683 8.63733 35.4523C8.6911 35.265 8.75832 35.089 8.98686 35.1656C9.19658 35.2338 9.20465 35.4097 9.15894 35.6084C8.93578 36.5989 8.32275 37.2743 7.55109 37.8107C6.92193 38.2478 6.20942 38.455 5.47002 38.5628L5.46733 38.56Z" fill="white"></path>
    <path d="M10.6255 35.3957C10.5313 36.7495 9.99629 37.8932 8.97996 38.773C8.84552 38.8894 8.66269 38.9689 8.4933 39.0001C8.40726 39.0143 8.25938 38.8979 8.21367 38.8014C8.18678 38.7418 8.28089 38.5658 8.36155 38.5176C9.47468 37.8251 9.96671 36.7466 10.0985 35.4411C10.1092 35.3304 10.0581 35.2027 10.0931 35.1062C10.1388 34.9785 10.241 34.8735 10.3189 34.76C10.4077 34.8508 10.5179 34.9274 10.5771 35.0381C10.6255 35.1289 10.6093 35.2595 10.6255 35.3985V35.3957Z" fill="white"></path>
    <path d="M12.069 35.8269C12.069 36.6301 11.8351 37.3623 11.4856 38.0661C11.3834 38.2733 11.249 38.3698 11.0473 38.2563C10.8403 38.1371 10.9532 37.9782 11.0339 37.8249C11.4963 36.9366 11.7679 36.0085 11.491 34.9897C11.4345 34.7853 11.3189 34.598 11.2678 34.3937C11.2382 34.2745 11.2866 34.1326 11.3001 34.002C11.4237 34.0588 11.6012 34.0786 11.6577 34.178C11.948 34.6803 12.0798 35.2394 12.0717 35.8326L12.069 35.8269Z" fill="white"></path>
    <path d="M13.4907 35.7561C13.4504 35.9093 13.3885 36.2045 13.2837 36.4855C13.2541 36.5621 13.1008 36.5876 13.0067 36.6359C12.9637 36.5252 12.8642 36.3975 12.8857 36.3038C13.2084 35.0494 12.7997 34.0447 11.9662 33.1763C11.8506 33.0542 11.7242 32.9208 11.8909 32.7931C11.9689 32.7307 12.184 32.7591 12.27 32.8329C13.1035 33.5452 13.4315 34.5102 13.4934 35.7589L13.4907 35.7561Z" fill="white"></path>
    <path d="M12.1749 31.4649C12.3954 31.5302 12.5809 31.5614 12.7422 31.6409C13.6833 32.0978 14.2479 32.8897 14.5034 33.9341C14.5302 34.0448 14.4738 34.269 14.4039 34.2945C14.2049 34.374 14.1269 34.2037 14.0974 34.0164C14.0974 34.005 14.0893 33.9965 14.0866 33.9852C13.9468 33.4346 13.6725 32.9663 13.3015 32.5604C12.995 32.2227 12.6266 32.0127 12.1857 31.9247C12.105 31.9077 12.0136 31.7714 11.9948 31.675C11.984 31.6182 12.1104 31.533 12.1696 31.4649H12.1749Z" fill="white"></path>
    <path d="M12.2685 30.8038C12.1878 30.8094 12.1663 30.8094 12.1448 30.8094C11.962 30.8094 11.7173 30.9144 11.7012 30.6108C11.6985 30.5426 11.9701 30.3979 12.1206 30.3922C13.0859 30.3553 13.9113 30.6789 14.5001 31.5303C14.562 31.6211 14.64 31.7205 14.6534 31.8255C14.6695 31.939 14.6185 32.061 14.5996 32.1802C14.5082 32.1263 14.3711 32.0951 14.3308 32.0128C13.8791 31.1018 13.102 30.8492 12.2739 30.8038H12.2685Z" fill="white"></path>
    <path d="M12.484 29.0611C12.9277 29.2144 13.3767 29.3534 13.8096 29.5322C13.8956 29.5663 13.9225 29.7536 13.9789 29.87C13.858 29.8813 13.7101 29.9466 13.6187 29.8955C12.8067 29.4584 12.0081 29.3875 11.1988 29.904C11.1343 29.9438 11.016 29.8927 10.9219 29.8813C10.9649 29.7678 10.973 29.606 11.0536 29.5521C11.4784 29.2598 11.957 29.1519 12.4867 29.0639L12.484 29.0611Z" fill="white"></path>
    <path d="M12.5549 28.431C11.5897 28.3486 10.8772 28.6211 10.3582 29.3902C10.3071 29.4669 10.1673 29.4754 10.0705 29.5151C10.0679 29.4073 10.0248 29.2739 10.0678 29.1916C10.4954 28.3685 11.6192 27.8378 12.4904 28.0478C12.5845 28.0705 12.6544 28.2011 12.7351 28.2834L12.5549 28.4281V28.431Z" fill="white"></path>
    <path d="M9.03906 29.3732C9.09553 28.4849 9.95323 27.4972 10.7276 27.3837C10.8029 27.3724 10.8862 27.4405 10.9669 27.4745C10.905 27.5483 10.8566 27.6675 10.7814 27.6902C10.0178 27.9201 9.56067 28.4338 9.39397 29.254C9.37246 29.359 9.24878 29.4413 9.1735 29.5322L9.03906 29.3732Z" fill="white"></path>
    <path d="M8.20898 29.2313C8.23049 28.5217 8.47517 27.9712 8.91612 27.5171C8.97258 27.4575 9.09626 27.4716 9.19037 27.4518C9.17692 27.5511 9.20112 27.6873 9.14735 27.7441C8.64725 28.2635 8.47517 28.885 8.58003 29.6087C8.59078 29.6854 8.5155 29.7733 8.47786 29.8556C8.40795 29.7875 8.3004 29.7336 8.27351 29.6485C8.22512 29.5009 8.22512 29.3363 8.21167 29.2313H8.20898Z" fill="white"></path>
    <path d="M6.71884 29.2711C6.80219 29.4272 6.8694 29.501 6.88285 29.5833C6.96082 30.1197 7.1571 30.5767 7.57654 30.9144C7.63031 30.9598 7.62762 31.0847 7.65182 31.1727C7.56578 31.1727 7.46361 31.2067 7.3937 31.1727C6.98771 30.974 6.51987 30.0374 6.58171 29.5606C6.59247 29.4868 6.64893 29.4187 6.72152 29.2711H6.71884Z" fill="white"></path>
    <path d="M7.63468 28.1188C7.66694 28.238 7.70996 28.3147 7.69921 28.3799C7.68307 28.5133 7.63468 28.6411 7.6051 28.7716C7.48949 29.2626 7.58628 29.7053 7.84709 30.1254C7.89011 30.1963 7.86053 30.3155 7.86591 30.4149C7.78525 30.3751 7.68307 30.3524 7.6293 30.29C7.27439 29.8614 7.1776 28.7659 7.44916 28.2891C7.47873 28.238 7.53519 28.2068 7.63199 28.1217L7.63468 28.1188Z" fill="white"></path>
    <path d="M8.13758 34.0929L8.02734 33.985C8.07574 33.934 8.11338 33.8573 8.17253 33.8346C8.30159 33.7835 8.46829 33.7977 8.57046 33.7183C8.80438 33.5395 9.01141 33.3181 9.22651 33.1138C9.29642 33.0485 9.36364 32.9775 9.43086 32.9066C9.43892 33.0173 9.48463 33.1421 9.45236 33.2386C9.29642 33.6984 8.66726 34.1156 8.13758 34.0929Z" fill="white"></path>
    <path d="M8.658 32.9377C8.29234 33.4713 7.50185 33.6756 7.06897 33.406C7.01251 33.372 6.99906 33.2641 6.9668 33.1903C7.03133 33.1705 7.10123 33.125 7.16038 33.1364C7.60402 33.2329 8.02884 33.2584 8.40526 32.9179C8.4429 32.8838 8.54239 32.9264 8.658 32.9377Z" fill="white"></path>
    <path d="M10.0325 32.9237C10.0272 32.8896 10.0003 32.8215 10.011 32.7562C10.0245 32.6711 10.0621 32.5888 10.0917 32.5065C10.1482 32.5661 10.2261 32.6143 10.253 32.6881C10.409 33.1025 10.1293 33.9113 9.75561 34.1213C9.70452 34.1497 9.62386 34.1213 9.55664 34.1213C9.57815 34.0362 9.57277 33.9312 9.62386 33.8744C9.92768 33.5197 10.0352 33.2954 10.0352 32.9237H10.0325Z" fill="white"></path>
    <path d="M7.47038 31.9985C6.86004 31.831 6.49438 31.4394 6.23895 30.9115C6.21744 30.8689 6.25508 30.7923 6.26583 30.7327C6.32768 30.7526 6.41371 30.7526 6.44598 30.798C6.54546 30.9314 6.59655 31.1158 6.71485 31.2152C6.94339 31.4082 7.20689 31.5501 7.45425 31.7204C7.52416 31.7686 7.57793 31.8396 7.63977 31.8992L7.46769 31.9985H7.47038Z" fill="white"></path>
    <path d="M6.43688 32.0666C6.52292 32.0779 6.59551 32.0637 6.64122 32.0921C7.00689 32.3362 7.39137 32.4724 7.83232 32.3929C7.87803 32.3844 7.93718 32.444 7.99096 32.4696C7.96676 32.5235 7.95332 32.6001 7.91299 32.6285C7.59303 32.83 6.63316 32.5575 6.43957 32.2141C6.42613 32.1886 6.43957 32.1489 6.43957 32.0666H6.43688Z" fill="white"></path>
    <path d="M10.377 31.706C10.6055 31.5811 10.6888 31.7656 10.7829 31.9047C11.068 32.3275 11.0948 32.8412 10.7803 33.2017C10.7722 32.9491 10.8071 32.6795 10.7426 32.4439C10.6727 32.1885 10.5087 31.9586 10.377 31.706Z" fill="white"></path>
    <path d="M11.0591 31.7828C10.8413 31.2436 10.5213 31.0506 10.0508 31.2124C10.118 30.9257 10.2766 30.8605 10.5697 30.9371C10.9569 31.0421 11.1693 31.3287 11.0591 31.7828Z" fill="white"></path>
    <path d="M10.4937 30.5879C10.327 30.5794 10.2436 30.5539 10.171 30.5737C9.93443 30.6418 9.7032 30.7298 9.46928 30.8064C9.38862 30.832 9.30527 30.849 9.22461 30.8689C9.24881 30.7809 9.2515 30.6731 9.30527 30.6106C9.56877 30.3041 10.1603 30.2587 10.4937 30.5879Z" fill="white"></path>
  </g>
  <g clip-path="url(#clip1_2445_5673)">
    <path d="M237.436 0C237.568 0.195736 237.66 0.450786 237.842 0.575346C240.645 2.48822 241.161 4.3833 239.687 7.33714C236.974 12.7762 234.276 18.2213 231.569 23.6633C229.931 26.9552 228.313 30.259 226.636 33.5332C225.493 35.7634 222.89 36.6323 220.715 35.5914C218.497 34.5296 217.494 32.0355 218.587 29.7667C221.506 23.7137 224.517 17.7082 227.495 11.6849C228.734 9.17884 229.874 6.61647 231.265 4.19943C232.136 2.68396 233.389 1.39091 234.47 0C235.461 0 236.449 0 237.439 0H237.436Z" fill="white"></path>
    <path d="M232.828 31.7389C233.052 30.8225 233.103 30.1078 233.389 29.5028C235.365 25.33 237.382 21.1781 239.406 17.0261C240.328 15.134 241.716 13.7757 243.981 13.8706C245.939 13.9536 247.404 15.0183 248.004 16.8422C248.314 17.7883 248.389 19.0635 247.998 19.9384C246.016 24.3721 243.9 28.7495 241.722 33.0913C239.961 36.5997 236.099 37.0742 233.84 34.0937C233.306 33.3908 233.115 32.4329 232.828 31.7389Z" fill="white"></path>
    <path d="M250.992 35.971C248.509 35.9799 246.437 33.9602 246.449 31.5461C246.461 29.2003 248.512 27.1628 250.89 27.1361C253.37 27.1095 255.474 29.1113 255.492 31.5194C255.51 33.9454 253.472 35.965 250.992 35.9739V35.971Z" fill="white"></path>
    <path d="M227.891 53H225.922C225.922 51.9264 225.922 49.6814 225.922 48.6226C225.919 46.514 225.859 44.4024 225.954 42.2998C225.975 41.8519 226.527 41.1016 226.906 41.0542C228.169 40.9029 229.476 40.897 230.741 41.0393C232.478 41.2351 233.881 42.801 233.839 44.2719C233.791 45.9031 232.335 47.2376 230.467 47.3622C228.744 47.4769 227.885 48.4111 227.891 50.1648C227.891 50.6897 227.891 52.4009 227.891 53ZM227.864 44.1978C228.097 45.1261 227.229 46.5971 229.184 46.5496C230.691 46.514 231.893 45.4523 231.872 44.1533C231.855 42.8573 230.479 41.6384 229.031 41.7303C227.142 41.849 228.172 43.3437 227.864 44.1978Z" fill="white"></path>
    <path d="M214.047 40.8317C215.701 44.3965 217.354 47.9642 219.058 51.6358C217.882 52.0421 217.151 52.1043 216.656 50.7994C215.743 48.3943 213.734 47.4334 211.32 48.4061C210.529 48.7235 210.114 49.9572 209.517 50.7639C209.204 51.185 208.869 51.5913 208.547 52.0035C208.365 51.879 208.186 51.7544 208.004 51.6298C209.824 48.0206 211.645 44.4143 213.465 40.805L214.05 40.8317H214.047ZM211.239 47.3414C212.472 47.3414 213.301 47.3978 214.113 47.3088C214.355 47.2821 214.785 46.7542 214.731 46.6208C214.334 45.6629 213.835 44.7435 213.221 43.5187C212.513 44.8829 211.97 45.9298 211.239 47.3414Z" fill="white"></path>
    <path d="M262.936 52.3505C261.998 52.5937 261.199 52.6619 260.653 51.5438C260.271 50.7579 259.647 49.4945 259.199 48.7353C258.665 47.8278 258.22 47.5461 257.54 48.6375C256.97 49.5509 256.283 50.9922 255.594 51.8226C255.349 52.1192 254.94 52.2823 254.609 52.5047C254.511 52.395 254.409 52.2853 254.311 52.1755C255.239 50.9329 256.098 49.0408 257.113 47.8753C257.805 47.0805 257.77 46.4933 257.185 45.6836C256.167 44.2779 255.251 42.798 254.254 41.2885C255.307 40.7398 255.976 40.9355 256.498 41.6799C257.062 42.4836 257.668 43.2695 258.134 44.1296C258.754 45.2803 259.256 45.1379 259.897 44.1622C260.411 43.3852 260.99 42.6467 261.581 41.9231C261.864 41.5761 262.234 41.3003 262.566 40.9889C262.712 41.1076 262.858 41.2262 263.004 41.3448C262.375 42.2049 261.763 43.0797 261.109 43.922C260.003 45.3534 259.946 46.8215 260.939 48.3261C261.614 49.3463 262.3 50.9537 262.971 51.9768C263.013 52.0391 262.956 52.1607 262.939 52.3475L262.936 52.3505Z" fill="white"></path>
    <path d="M245.465 52.0806C242.687 52.0777 242.233 52.2912 242.159 50.8528C242.173 50.2508 242.188 49.6754 242.138 49.112C242.138 48.9548 242.135 48.7917 242.132 48.6167C242.114 47.721 242.523 47.38 243.382 47.4008C243.675 47.4067 243.964 47.4067 244.257 47.4067C244.537 47.4156 244.821 47.4156 245.104 47.4067C245.456 47.4067 245.808 47.4008 246.161 47.4008C246.158 47.2465 246.155 47.0953 246.152 46.9411C246.155 46.7869 246.158 46.6356 246.161 46.4814C245.808 46.4814 245.456 46.4814 245.104 46.4755C244.821 46.4695 244.54 46.4695 244.257 46.4755C243.964 46.4755 243.675 46.4755 243.382 46.4814C242.523 46.5021 242.117 46.1611 242.132 45.2655C242.135 45.0905 242.138 44.9274 242.138 44.7702C242.185 44.2037 242.173 43.6284 242.159 43.0293C242.236 41.591 242.687 41.8074 245.465 41.8015C246.059 41.8015 246.653 41.8371 247.241 41.7867C247.522 41.763 247.787 41.5761 248.062 41.4634C248.044 41.2825 248.029 41.0986 248.011 40.9177C246.731 40.9177 245.453 40.9029 244.173 40.9177C239.95 40.98 240.066 40.6686 240.147 43.1806C240.141 44.438 240.132 45.6895 240.135 46.9351C240.132 48.1807 240.141 49.4323 240.147 50.6897C240.069 53.2017 239.953 52.8903 244.173 52.9525C245.45 52.9703 246.731 52.9525 248.011 52.9525C248.029 52.7716 248.044 52.5878 248.062 52.4069C247.79 52.2942 247.522 52.1073 247.241 52.0836C246.653 52.0332 246.056 52.0688 245.465 52.0688V52.0806Z" fill="white"></path>
  </g>
  <defs>
    <clipPath id="clip0_2445_5673">
      <rect width="185" height="20" fill="white" transform="translate(0 19)"></rect>
    </clipPath>
    <clipPath id="clip1_2445_5673">
      <rect width="55" height="53" fill="white" transform="translate(208)"></rect>
    </clipPath>
  </defs>
</svg>
