<?xml version="1.0" encoding="UTF-8"?>
<svg xmlns="http://www.w3.org/2000/svg" width="216" height="52" viewBox="0 0 216 52" fill="none">
  <path d="M3.21 10H1.53V28H12.09V26.41H3.21V10ZM19.0409 15.25C22.2509 15.25 23.7809 17.08 23.9609 20.14H13.8209C14.1209 16.96 16.1009 15.25 19.0409 15.25ZM19.1909 28.3C22.5509 28.3 24.6509 26.65 25.3709 23.77L23.9309 23.32C23.3609 25.27 22.1309 26.86 19.1609 26.86C15.9209 26.86 13.9109 24.85 13.7609 21.52H25.4009C25.4609 21.04 25.4609 20.5 25.4609 20.23C25.4609 16.39 23.1509 13.81 19.1009 13.81C15.1109 13.81 12.1709 16.51 12.1709 21.04C12.1709 25.54 14.8409 28.3 19.1909 28.3ZM32.287 15.55C35.017 15.55 36.487 16.78 36.487 18.88C36.487 21.04 35.197 22.15 32.347 22.15C29.497 22.15 28.357 21.01 28.357 18.88C28.357 16.81 29.587 15.55 32.287 15.55ZM32.647 31.12C28.567 31.12 27.397 30.55 27.397 29.14C27.397 28.21 28.177 27.16 30.247 27.16H35.887C37.507 27.16 38.017 27.94 38.017 28.78C38.017 30.34 37.027 31.12 32.647 31.12ZM39.487 28.78C39.487 26.89 38.257 25.78 35.797 25.78C34.117 25.78 32.167 25.81 30.457 25.81C29.497 25.81 28.897 25.57 28.897 24.91C28.897 24.58 29.137 24.37 29.407 23.95L29.947 23.17C30.637 23.38 31.417 23.5 32.287 23.5C36.097 23.5 37.987 21.97 37.987 19.21C37.987 16.84 36.397 15.88 34.207 15.58L34.237 15.49C35.437 15.52 36.007 15.55 36.787 15.55H39.067V14.11H32.557C28.957 14.11 26.827 15.79 26.827 18.94C26.827 20.95 27.847 22.45 29.797 23.11L28.777 23.83C28.117 24.22 27.517 24.76 27.517 25.36C27.517 26.35 28.207 26.86 29.017 27.04V27.1C26.947 27.43 25.927 28.36 25.927 29.53C25.927 31.36 27.487 32.5 32.677 32.5C37.837 32.5 39.487 31.33 39.487 28.78ZM45.0464 26.86C42.6764 26.86 41.8664 25.6 41.8664 24.4C41.8664 22.72 43.0064 21.85 45.1364 21.85H50.1164V22.96C50.1164 25.21 48.1964 26.86 45.0464 26.86ZM50.1164 28H51.7064V19.33C51.7064 15.76 50.0864 13.81 46.4564 13.81C43.2764 13.81 41.2364 15.49 40.7264 18.91L42.2564 19.18C42.7064 16.42 43.9964 15.25 46.4264 15.25C49.1564 15.25 50.1164 16.72 50.1164 19.39V20.47H45.0164C41.8664 20.47 40.2764 22.24 40.2764 24.46C40.2764 27.01 41.9864 28.3 44.8664 28.3C47.3264 28.3 49.4264 27.07 50.0564 24.4H50.1164V28ZM65.5966 19.39L67.1266 19.06C66.4966 15.76 64.3966 13.81 60.6166 13.81C56.6266 13.81 53.5966 16.48 53.5966 21.01C53.5966 25.54 56.3866 28.33 60.7066 28.33C64.4566 28.33 66.4666 26.32 67.2166 22.96L65.6866 22.57C65.0266 24.94 64.0066 26.83 60.6766 26.83C57.3466 26.83 55.1866 24.64 55.1866 21.1C55.1866 17.29 57.4066 15.28 60.5866 15.28C63.4966 15.28 64.9966 16.78 65.5966 19.39ZM69.6537 32.59C72.1137 32.59 73.7637 31.33 75.1437 28.18L81.2937 14.11H79.5837L77.5437 19C76.7637 20.89 75.5037 23.92 74.5437 26.2C73.5537 23.95 72.1137 20.86 71.3037 18.97L69.1737 14.11H67.3737L73.7037 27.85C72.4437 30.67 71.3037 31.09 69.6537 31.09C69.0537 31.09 68.5437 31 67.9137 30.88L67.6437 32.41C68.1837 32.5 68.7837 32.59 69.6537 32.59ZM100.131 28H101.931L94.2811 10H92.5711L84.8911 28H86.6911L89.1511 22.03H97.6411L100.131 28ZM90.5611 18.64C91.5211 16.39 92.6311 13.63 93.3511 11.65H93.4411C94.1611 13.57 95.3011 16.39 96.2311 18.64L97.0411 20.56H89.7811L90.5611 18.64ZM102.95 24.01C102.95 26.56 104.18 28.33 106.85 28.33C107.93 28.33 108.71 28.15 109.61 27.88L109.37 26.44C108.47 26.68 107.87 26.8 107.03 26.8C105.26 26.8 104.54 25.84 104.54 23.98V15.55H109.49V14.11H104.54V10.03H102.95V14.11H100.55V15.55H102.95V24.01ZM112.924 9.61H111.334V28H112.924V9.61ZM120.193 26.86C117.823 26.86 117.013 25.6 117.013 24.4C117.013 22.72 118.153 21.85 120.283 21.85H125.263V22.96C125.263 25.21 123.343 26.86 120.193 26.86ZM125.263 28H126.853V19.33C126.853 15.76 125.233 13.81 121.603 13.81C118.423 13.81 116.383 15.49 115.873 18.91L117.403 19.18C117.853 16.42 119.143 15.25 121.573 15.25C124.303 15.25 125.263 16.72 125.263 19.39V20.47H120.163C117.013 20.47 115.423 22.24 115.423 24.46C115.423 27.01 117.133 28.3 120.013 28.3C122.473 28.3 124.573 27.07 125.203 24.4H125.263V28ZM134.863 28.33C138.343 28.33 140.083 26.71 140.083 24.31C140.083 22.09 138.493 20.83 134.833 20.29C131.863 19.84 130.903 18.97 130.903 17.56C130.903 16.12 132.043 15.19 134.173 15.19C136.333 15.19 137.473 16.15 138.073 18.61L139.633 18.22C138.913 15.4 137.473 13.81 134.143 13.81C130.963 13.81 129.313 15.43 129.313 17.65C129.313 19.78 130.663 21.07 134.143 21.61C137.443 22.12 138.463 22.84 138.463 24.31C138.463 25.87 137.263 26.92 134.863 26.92C131.623 26.92 130.543 25.15 130.003 23.02L128.473 23.32C129.193 26.41 130.813 28.33 134.863 28.33ZM156.689 19.57V17.98H148.259V11.59H157.829V10H146.579V28H148.259V19.57H156.689ZM170.546 28H172.136V14.11H170.546V22.42C170.546 25.21 168.776 26.83 165.866 26.83C162.776 26.83 161.846 24.64 161.846 22.42V14.11H160.256V22.72C160.256 25.69 161.456 28.33 165.476 28.33C168.056 28.33 169.946 26.95 170.516 24.31H170.546V28ZM176.762 19.69C176.762 16.9 178.562 15.28 181.472 15.28C184.562 15.28 185.492 17.5 185.492 19.69V28H187.082V19.39C187.082 16.45 185.882 13.81 181.862 13.81C179.312 13.81 177.422 15.19 176.822 17.8H176.762V14.11H175.172V28H176.762V19.69ZM195.488 26.83C192.188 26.83 190.568 24.76 190.568 21.07C190.568 17.38 192.278 15.22 195.488 15.22C198.668 15.22 200.738 17.53 200.738 20.98V21.16C200.738 24.82 198.668 26.83 195.488 26.83ZM200.738 28H202.328V9.61H200.738V18.49H200.708C200.198 15.79 198.488 13.78 195.038 13.81C191.258 13.78 188.978 16.6 188.978 21.07C188.978 25.51 191.108 28.33 195.158 28.33C198.428 28.33 200.138 26.35 200.678 23.68H200.738V28ZM210.478 28.33C213.958 28.33 215.698 26.71 215.698 24.31C215.698 22.09 214.108 20.83 210.448 20.29C207.478 19.84 206.518 18.97 206.518 17.56C206.518 16.12 207.658 15.19 209.788 15.19C211.948 15.19 213.088 16.15 213.688 18.61L215.248 18.22C214.528 15.4 213.088 13.81 209.758 13.81C206.578 13.81 204.928 15.43 204.928 17.65C204.928 19.78 206.278 21.07 209.758 21.61C213.058 22.12 214.078 22.84 214.078 24.31C214.078 25.87 212.878 26.92 210.478 26.92C207.238 26.92 206.158 25.15 205.618 23.02L204.088 23.32C204.808 26.41 206.428 28.33 210.478 28.33Z" fill="white"></path>
</svg>
