<?xml version="1.0" encoding="UTF-8"?>
<svg xmlns="http://www.w3.org/2000/svg" width="150" height="52" viewBox="0 0 150 52" fill="none">
  <path d="M23.4929 0.0132593C25.1561 5.22001 26.8193 10.4259 28.4998 15.6866C30.4238 14.683 32.3116 13.6993 34.1985 12.7156C34.2216 12.7331 34.2439 12.7513 34.267 12.7687C33.2855 14.6822 32.3041 16.5956 31.2897 18.5729C36.5203 20.2055 41.68 21.8157 46.928 23.4532C41.6792 25.1288 36.4848 26.7871 31.2427 28.461C32.2521 30.3687 33.2558 32.2648 34.2595 34.1609C34.2397 34.1841 34.2207 34.2073 34.2009 34.2313C32.3173 33.2485 30.4329 32.2648 28.5031 31.2579C26.8193 36.5103 25.1387 41.756 23.4574 47.0008C23.4227 46.9975 23.3889 46.9942 23.3542 46.9909C21.7224 41.775 20.0905 36.5583 18.4496 31.3151C16.5338 32.3145 14.6345 33.3048 12.7353 34.2951C12.713 34.2777 12.6907 34.2603 12.6692 34.2429C13.6515 32.3518 14.6337 30.4607 15.6366 28.5307C10.3952 26.8583 5.19762 25.1993 0 23.541L0.00165082 23.4242C5.2199 21.7908 10.4382 20.1566 15.7117 18.5058C14.7113 16.5774 13.7216 14.6706 12.6717 12.6469C14.6874 13.6861 16.5999 14.673 18.5643 15.6857C20.1854 10.4342 21.7966 5.21753 23.407 0C23.4359 0.00414352 23.4648 0.00911575 23.4929 0.0132593ZM23.4714 19.8085C21.4194 19.8085 19.762 21.4659 19.7554 23.5278C19.7488 25.5805 21.4153 27.2694 23.459 27.2644C25.5721 27.2586 27.2089 25.5987 27.2031 23.5228C27.1965 21.3574 25.4152 19.7804 23.4714 19.8094V19.8085Z" fill="white"></path>
  <path d="M96.6141 12.0974V25.1653H93.7623V15.3766L93.669 15.36C93.3975 16.1465 93.1226 16.9329 92.8535 17.721C92.0496 20.0803 91.2423 22.438 90.4516 24.8015C90.3533 25.0948 90.2262 25.2183 89.9051 25.1968C89.4396 25.1653 88.9691 25.1694 88.5028 25.1959C88.2031 25.2125 88.081 25.1089 87.9877 24.8214C87.0088 21.7949 86.0142 18.7735 85.0228 15.7512C84.9766 15.6111 84.9238 15.4736 84.8066 15.346V25.1545H81.9531V12.0974C82.4929 12.0974 83.0253 12.0974 83.5586 12.0974C84.3287 12.0974 85.0996 12.1165 85.8689 12.0883C86.1949 12.0767 86.3113 12.2027 86.4112 12.4919C87.3439 15.1844 88.2923 17.871 89.2721 20.6613C89.4157 20.2726 89.5304 19.9718 89.6377 19.6685C90.4862 17.2661 91.3372 14.8645 92.1734 12.4579C92.2699 12.1811 92.3962 12.0842 92.6934 12.0883C93.9852 12.1065 95.2769 12.0966 96.6133 12.0966L96.6141 12.0974Z" fill="white"></path>
  <path d="M78.2753 18.7146C78.2085 21.2439 77.2898 23.3057 75.0348 24.615C72.4405 26.1216 67.9725 25.9484 65.7332 23.1913C64.4711 21.6375 64.056 19.8284 64.2607 17.8735C64.6379 14.2645 67.2998 11.882 70.9193 11.8306C72.3629 11.8099 73.7471 12.0137 75.0108 12.743C77.3005 14.064 78.2241 16.149 78.2761 18.7146H78.2753ZM75.2716 19.0901C75.2716 16.9479 74.4941 15.5275 73.0884 14.9084C71.5268 14.2198 69.9997 14.3242 68.6238 15.4015C67.701 16.1241 67.2998 17.1517 67.2173 18.2887C67.1108 19.7522 67.4831 21.0789 68.6816 22.0112C70.0328 23.062 71.5589 23.1565 73.0769 22.4621C74.6518 21.7419 75.2337 20.3555 75.2708 19.0892L75.2716 19.0901Z" fill="white"></path>
  <path d="M26.9531 44.3863C27.1743 43.6437 27.3807 42.9493 27.5895 42.2548C27.7637 41.6764 27.9296 41.0955 28.1269 40.5253C28.1714 40.396 28.3134 40.2469 28.4405 40.2088C30.4826 39.5914 32.3687 38.6566 34.0426 37.334C35.4441 36.2268 36.66 34.9299 37.6884 33.4565C38.7516 31.9341 39.5258 30.2776 40.1085 28.5207C40.1482 28.4014 40.2678 28.2572 40.3809 28.2207C41.6686 27.8014 42.962 27.4003 44.3412 26.9677C43.4985 31.4477 41.567 35.2738 38.4016 38.4527C35.2386 41.6292 31.4351 43.5866 26.9531 44.3871V44.3863Z" fill="white"></path>
  <path d="M26.918 2.67755C30.9707 3.38775 34.4482 5.05179 37.437 7.70199C41.7448 11.5215 43.678 16.3711 44.2425 20.0447C43.6994 19.8723 43.1868 19.7066 42.6726 19.5467C41.914 19.3105 41.1514 19.0884 40.3986 18.8365C40.2764 18.7959 40.1427 18.6475 40.1031 18.5216C39.281 15.907 37.9339 13.6065 36.0545 11.616C34.3657 9.82762 32.4136 8.41965 30.147 7.46746C29.594 7.2346 29.012 7.07134 28.4483 6.86334C28.3608 6.83102 28.2568 6.74732 28.2295 6.66362C27.7979 5.37581 27.3785 4.08386 26.918 2.67838V2.67755Z" fill="white"></path>
  <path d="M125.29 25.1877C124.251 25.1877 123.251 25.1951 122.252 25.1761C122.15 25.1744 122.01 25.0244 121.96 24.9109C121.647 24.1916 121.348 23.4664 121.061 22.7355C120.979 22.525 120.875 22.4446 120.641 22.4463C119.156 22.4579 117.671 22.4587 116.186 22.4463C115.946 22.4446 115.856 22.54 115.777 22.7463C115.497 23.4789 115.204 24.2073 114.896 24.9291C114.85 25.0385 114.701 25.1752 114.597 25.1769C113.635 25.1959 112.673 25.1885 111.648 25.1885C112 24.3573 112.333 23.5617 112.673 22.7703C114.13 19.3801 115.596 15.994 117.037 12.5971C117.203 12.2043 117.396 12.0535 117.819 12.0875C118.338 12.1289 118.864 12.0825 119.386 12.1082C119.51 12.114 119.691 12.2292 119.74 12.3403C121.105 15.4694 122.457 18.6053 123.811 21.7394C124.258 22.7761 124.705 23.8137 125.151 24.8504C125.193 24.9482 125.233 25.0484 125.289 25.1868L125.29 25.1877ZM119.952 19.9569C119.425 18.6227 118.916 17.3332 118.37 15.9468C117.826 17.3465 117.325 18.6359 116.811 19.9569H119.952Z" fill="white"></path>
  <path d="M2.66879 27.0365C3.09966 27.155 3.44303 27.2354 3.77732 27.3439C4.71416 27.6481 5.64936 27.9597 6.57959 28.2829C6.68525 28.3193 6.80823 28.4362 6.8396 28.5406C7.38767 30.4035 8.2395 32.1173 9.37031 33.6869C10.9526 35.8838 12.9179 37.6588 15.3314 38.8861C16.3277 39.3925 17.395 39.7588 18.4259 40.1996C18.5448 40.2502 18.6933 40.348 18.7305 40.4574C19.1424 41.6814 19.5353 42.9112 19.9315 44.1401C19.9513 44.2031 19.9504 44.2719 19.9653 44.3813C15.669 43.5998 11.9489 41.7394 8.81894 38.7262C5.51399 35.5448 3.51154 31.6598 2.66797 27.0365H2.66879Z" fill="white"></path>
  <path d="M20.0277 2.66925C19.5712 4.06147 19.1568 5.341 18.7235 6.61389C18.6897 6.71333 18.5312 6.802 18.4131 6.83598C15.6183 7.64811 13.2345 9.12901 11.1842 11.1966C9.47724 12.9178 8.16896 14.8844 7.31796 17.1575C7.15453 17.5942 7.01339 18.0392 6.84088 18.4727C6.79795 18.5804 6.68735 18.7014 6.5817 18.737C5.74968 19.013 4.91189 19.2682 4.07575 19.5309C3.60939 19.6776 3.14303 19.8251 2.60156 19.9958C3.43193 15.5175 5.41044 11.7154 8.55856 8.54311C11.7067 5.37 15.5382 3.5021 20.0285 2.67008L20.0277 2.66925Z" fill="white"></path>
  <path d="M103.896 20.1325V25.1644H101.049V12.1239C101.146 12.1148 101.239 12.0983 101.33 12.0983C102.925 12.0974 104.52 12.0734 106.114 12.1074C107.187 12.1306 108.252 12.2615 109.2 12.8482C110.017 13.3537 110.574 14.083 110.681 15.0286C110.772 15.8249 110.802 16.6727 110.627 17.4451C110.293 18.916 109.219 19.6991 107.774 19.9544C107.156 20.0638 106.521 20.0986 105.892 20.1267C105.25 20.1549 104.605 20.1334 103.897 20.1334L103.896 20.1325ZM103.921 17.5893C104.811 17.5893 105.678 17.658 106.528 17.5702C107.381 17.4823 107.803 16.923 107.811 16.1241C107.82 15.3832 107.409 14.828 106.589 14.7087C105.717 14.5811 104.826 14.5869 103.92 14.533V17.5909L103.921 17.5893Z" fill="white"></path>
  <path d="M127.359 23.8899C128.04 23.1374 128.697 22.4132 129.376 21.6623C129.466 21.7485 129.54 21.8198 129.614 21.8911C130.544 22.7944 131.628 23.0869 132.872 22.7007C133.387 22.5408 133.788 22.2342 133.868 21.659C133.954 21.0367 133.631 20.6057 133.096 20.3812C132.289 20.0414 131.458 19.7572 130.633 19.4621C129.767 19.153 128.952 18.7669 128.377 18.0111C127.311 16.6106 127.685 14.2148 129.149 13.0107C130.475 11.9201 132.025 11.7162 133.658 11.8795C134.717 11.9856 135.693 12.3303 136.527 13.0181C136.589 13.0687 136.644 13.1275 136.729 13.2079C136.08 13.9239 135.445 14.6242 134.777 15.3625C134.351 14.8628 133.792 14.6764 133.193 14.5529C132.584 14.4269 132.015 14.533 131.47 14.7882C131.044 14.988 130.772 15.3319 130.759 15.8216C130.746 16.2948 130.976 16.6661 131.393 16.8525C131.992 17.1202 132.617 17.3315 133.235 17.5578C133.723 17.7376 134.232 17.8702 134.706 18.0823C136.285 18.7917 136.999 20.1674 136.729 21.8861C136.483 23.4532 135.648 24.5786 134.162 25.1006C131.804 25.9293 129.568 25.7106 127.567 24.0855C127.503 24.0341 127.448 23.9728 127.361 23.8899H127.359Z" fill="white"></path>
  <path d="M148.965 13.2195C148.331 13.9197 147.696 14.6208 147.03 15.3576C146.594 14.8802 146.045 14.6697 145.441 14.5512C144.832 14.4319 144.264 14.5338 143.719 14.7899C143.308 14.9838 143.048 15.3004 143.028 15.786C143.009 16.2642 143.192 16.6445 143.618 16.8351C144.23 17.1078 144.866 17.3282 145.495 17.5602C145.944 17.726 146.414 17.8437 146.851 18.0384C148.846 18.9276 149.17 20.2842 148.937 22.0228C148.731 23.5526 147.826 24.6051 146.395 25.1089C144.163 25.8954 142.02 25.7205 140.058 24.2835C139.907 24.1725 139.774 24.0366 139.609 23.8916C140.297 23.1308 140.958 22.3991 141.641 21.6441C142.34 22.472 143.206 22.9013 144.255 22.8557C144.643 22.8391 145.051 22.7405 145.404 22.5772C146.321 22.1529 146.391 21.0151 145.53 20.4897C145.102 20.2278 144.615 20.0538 144.143 19.8748C143.54 19.6461 142.918 19.4696 142.315 19.2409C139.188 18.055 139.679 14.5288 141.273 13.12C142.085 12.4024 143.034 12.0005 144.098 11.8886C145.724 11.7179 147.282 11.8985 148.646 12.917C148.723 12.9742 148.799 13.0347 148.871 13.0977C148.901 13.1234 148.921 13.1615 148.966 13.2212L148.965 13.2195Z" fill="white"></path>
  <path d="M61.3363 13.7225C60.5596 14.3606 59.8489 14.944 59.2381 15.4462C58.5844 15.1355 58.0273 14.7435 57.4123 14.6026C55.6245 14.1932 54.0306 15.0559 53.2688 16.7357C52.3831 18.689 52.9543 21.1071 54.5696 22.2524C56.0157 23.2767 57.9587 23.0164 59.0879 21.6466C59.1226 21.6043 59.1589 21.5646 59.2307 21.4825C60.0115 22.0659 60.7874 22.646 61.5988 23.2518C61.1853 23.9098 60.6306 24.3888 59.9835 24.7584C57.2869 26.2973 52.8693 25.5871 50.951 22.6013C49.334 20.0845 49.4075 15.5299 52.284 13.309C53.5255 12.3502 54.9361 11.8944 56.4903 11.8356C57.9158 11.7817 59.2563 12.0411 60.4259 12.9104C60.7321 13.1383 60.9987 13.4192 61.3363 13.7234V13.7225Z" fill="white"></path>
  <path d="M131.783 34.5653C130.064 34.5611 128.835 33.3197 128.834 31.5853C128.833 29.8234 130.087 28.5804 131.857 28.587C133.554 28.5928 134.787 29.8616 134.784 31.5977C134.782 33.3429 133.541 34.5694 131.783 34.5653ZM129.664 31.577C129.662 32.8805 130.588 33.8634 131.815 33.8584C133.028 33.8534 133.95 32.8855 133.956 31.6085C133.964 30.2834 133.073 29.3287 131.825 29.3237C130.567 29.3187 129.664 30.2593 129.663 31.577H129.664Z" fill="white"></path>
  <path d="M139.08 34.5653C137.344 34.5645 136.099 33.3073 136.105 31.5629C136.112 29.8292 137.373 28.5837 139.116 28.587C140.825 28.5903 142.057 29.8433 142.057 31.5786C142.057 33.3413 140.835 34.5661 139.079 34.5653H139.08ZM141.231 31.6052C141.24 30.2776 140.351 29.3279 139.1 29.3237C137.864 29.3196 136.949 30.256 136.937 31.5389C136.923 32.8623 137.857 33.8659 139.095 33.8584C140.313 33.8509 141.224 32.8896 141.232 31.6052H141.231Z" fill="white"></path>
  <path d="M123.508 28.7527C124.316 28.7527 125.1 28.7096 125.878 28.7635C126.813 28.829 127.327 29.5102 127.198 30.4002C127.14 30.8046 126.989 30.9878 126.361 31.4005C126.472 31.4518 126.563 31.4941 126.653 31.5364C127.567 31.959 127.765 33.2866 126.984 33.9205C126.726 34.1294 126.389 34.3357 126.076 34.3581C125.233 34.4186 124.383 34.3788 123.509 34.3788V28.7519L123.508 28.7527ZM124.286 31.7319V33.8228C124.831 33.7929 125.311 33.7987 125.782 33.7308C126.345 33.6496 126.627 33.299 126.627 32.7877C126.627 32.2391 126.357 31.8919 125.772 31.8073C125.303 31.7402 124.822 31.7551 124.286 31.7311V31.7319ZM124.307 31.064C124.807 31.064 125.262 31.0971 125.71 31.0541C126.129 31.0143 126.374 30.6737 126.375 30.2452C126.377 29.8209 126.147 29.4571 125.776 29.4256C125.292 29.385 124.801 29.4157 124.306 29.4157V31.064H124.307Z" fill="white"></path>
  <path d="M64.5684 28.7643H68.2274V29.4414H65.3641V31.1444H68.0136V31.9035H65.3632V33.7043H68.3553V34.4285H64.5684V28.7643Z" fill="white"></path>
  <path d="M72.0555 34.3962C72.3329 33.7598 72.6028 33.1316 72.8784 32.5068C73.3952 31.335 73.9086 30.1615 74.4451 28.998C74.5004 28.8779 74.6985 28.7594 74.8322 28.7569C75.0055 28.7536 75.287 28.8215 75.339 28.94C76.1355 30.7383 76.9023 32.5507 77.6766 34.3606C77.022 34.5968 76.8231 34.5098 76.587 33.9023C76.3488 33.2891 75.8978 32.9825 75.2342 32.9825C74.753 32.9825 74.2701 32.9634 73.7905 32.9949C73.6568 33.004 73.4926 33.1349 73.4141 33.2568C73.3052 33.4258 73.2664 33.6404 73.1913 33.8327C72.9255 34.518 72.8817 34.5404 72.0547 34.3954L72.0555 34.3962ZM75.9242 32.3071C75.5718 31.4436 75.2399 30.6306 74.8702 29.7256C74.4938 30.6364 74.1554 31.4552 73.8037 32.3071H75.9242Z" fill="white"></path>
  <path d="M93.0703 34.4153C93.0389 34.426 93.0257 34.4335 93.0125 34.4352C92.4898 34.4783 92.1373 34.2603 91.9552 33.7813C91.7532 33.2493 91.373 32.9833 90.8145 32.9833C90.292 32.9833 89.7695 32.9982 89.2487 32.9766C88.9953 32.9659 88.8739 33.0637 88.8071 33.2916C88.7567 33.4631 88.6849 33.628 88.623 33.7954C88.349 34.5363 88.3415 34.5396 87.4922 34.4037C87.5335 34.2868 87.5648 34.1708 87.6127 34.0631C88.3498 32.3883 89.0935 30.7159 89.8223 29.0378C89.9197 28.8149 90.0378 28.7063 90.2829 28.7395C90.4736 28.7652 90.6783 28.6773 90.7947 28.9541C91.5466 30.7425 92.3151 32.5233 93.0769 34.3075C93.086 34.3291 93.0753 34.3597 93.072 34.4161L93.0703 34.4153ZM91.3452 32.307C90.9985 31.4626 90.6651 30.6496 90.2887 29.7331C89.9065 30.6554 89.5706 31.4676 89.2222 32.307H91.3452Z" fill="white"></path>
  <path d="M117.204 34.3946C116.433 34.5495 116.409 34.5363 116.126 33.8567C115.882 33.2739 115.451 32.9825 114.83 32.9825C114.335 32.9825 113.839 32.9667 113.346 32.9941C113.222 33.0007 113.068 33.1209 112.995 33.2327C112.884 33.4018 112.832 33.6106 112.754 33.8012C112.562 34.2692 112.195 34.4755 111.654 34.4203C111.671 34.3424 111.673 34.2612 111.704 34.1924C112.464 32.4654 113.231 30.7408 113.984 29.0105C114.077 28.7967 114.193 28.7121 114.416 28.7387C114.609 28.7619 114.81 28.6831 114.926 28.9583C115.668 30.7234 116.429 32.4803 117.182 34.2404C117.202 34.2868 117.198 34.3432 117.205 34.3946H117.204ZM114.431 29.7157C114.055 30.6331 113.719 31.4543 113.372 32.3021H115.48C115.132 31.4427 114.797 30.6173 114.431 29.7157Z" fill="white"></path>
  <path d="M58.0204 28.7544H58.755V31.0781H61.7215V28.7635H62.4768V34.4136H61.7545V31.8554H58.7674V34.4252H58.0195V28.7544H58.0204Z" fill="white"></path>
  <path d="M148.079 28.766C147.147 29.6594 146.267 30.5021 145.368 31.3632C146.334 32.3725 147.283 33.3653 148.311 34.4393C147.701 34.4261 147.214 34.5852 146.784 34.0523C146.163 33.2816 145.445 32.5897 144.767 31.8662C144.687 31.7808 144.598 31.7046 144.449 31.5645V34.4236H143.703V28.7718H144.432V31.2463C144.691 30.9994 144.865 30.8353 145.038 30.6679C145.541 30.1781 146.086 29.7223 146.534 29.1853C146.96 28.6757 147.459 28.7138 148.079 28.766Z" fill="white"></path>
  <path d="M97.751 29.2326C97.5215 29.4381 97.3382 29.6022 97.1294 29.7903C96.7993 29.4182 96.3874 29.2839 95.9095 29.3254C95.4291 29.3676 95.07 29.6386 95.0015 30.0273C94.9231 30.4682 95.0997 30.7864 95.5867 30.9952C95.9004 31.1303 96.2363 31.2123 96.5607 31.3242C97.4777 31.6391 97.855 32.1363 97.7947 32.9435C97.7336 33.7664 97.1748 34.3979 96.3065 34.5255C95.4357 34.6531 94.607 34.5562 93.9805 33.7747C94.1943 33.5824 94.3874 33.4092 94.6028 33.2161C95.0106 33.696 95.4992 33.9711 96.1224 33.8062C96.337 33.7498 96.5591 33.6263 96.7175 33.4714C97.1393 33.0579 97.0576 32.5043 96.5285 32.249C96.0976 32.0419 95.6296 31.9151 95.188 31.7286C94.2991 31.3532 93.9202 30.4847 94.2718 29.6262C94.5063 29.0519 94.9743 28.7469 95.5603 28.645C96.3552 28.5058 97.1154 28.558 97.7518 29.2334L97.751 29.2326Z" fill="white"></path>
  <path d="M102.268 28.7536C103.093 28.7536 103.89 28.7121 104.682 28.7643C105.582 28.8248 106.105 29.4779 106.076 30.3903C106.048 31.2687 105.471 31.8446 104.535 31.8927C104.044 31.9184 103.55 31.8968 103.015 31.8968V34.4219H102.268V28.7527L102.268 28.7536ZM103.025 31.2703C103.573 31.238 104.082 31.248 104.577 31.1684C105.067 31.0889 105.246 30.7963 105.234 30.2776C105.224 29.8118 105.001 29.4895 104.547 29.4439C104.051 29.3942 103.546 29.4323 103.024 29.4323V31.2695L103.025 31.2703Z" fill="white"></path>
  <path d="M122.188 28.795C121.721 29.5069 121.309 30.2419 120.793 30.8933C120.221 31.6159 119.973 32.3841 120.075 33.294C120.116 33.6578 120.082 34.0308 120.082 34.4236H119.284C119.284 33.8045 119.265 33.1896 119.291 32.5755C119.307 32.1695 119.202 31.8397 118.967 31.504C118.354 30.6248 117.78 29.7182 117.189 28.819C117.83 28.6085 118.111 28.6972 118.441 29.2218C118.843 29.8615 119.238 30.5054 119.674 31.2082C119.863 30.9239 120.027 30.682 120.187 30.4358C120.433 30.0546 120.679 29.6726 120.92 29.2872C121.318 28.6525 121.345 28.6392 122.189 28.7933L122.188 28.795Z" fill="white"></path>
  <path d="M80.2911 29.4315V34.4153H79.5028V29.448H77.6836V28.7685H82.0962V29.4315H80.2911Z" fill="white"></path>
  <path d="M53.9813 34.4145V29.4489H52.1777V28.7685H56.592V29.4306H54.8009V34.4145H53.9821H53.9813Z" fill="white"></path>
  <path d="M107.575 34.4244V28.766H108.352V33.7183H110.939V34.4244H107.574H107.575Z" fill="white"></path>
  <path d="M83.4648 28.7569H84.1945V33.7167H86.816V34.4128H83.4648V28.7569Z" fill="white"></path>
</svg>
