<?xml version="1.0" encoding="UTF-8"?>
<svg xmlns="http://www.w3.org/2000/svg" width="137" height="52" viewBox="0 0 137 52" fill="none">
  <path d="M23.8008 21.4191C29.5295 14.3083 35.2594 7.19879 41.0599 0C43.6844 3.16482 46.2776 6.29257 48.9299 9.491C40.5396 13.5099 32.2038 17.5021 23.868 21.4955C23.846 21.47 23.8228 21.4446 23.8008 21.4191Z" fill="white"></path>
  <path d="M21.5114 0.439209C25.0582 1.59343 28.5309 2.72215 32.0743 3.8752C27.4939 10.9083 22.9447 17.8962 18.3944 24.884C18.3574 24.8736 18.3203 24.8632 18.2832 24.8527C19.3562 16.7396 20.4292 8.6265 21.5114 0.440368V0.439209Z" fill="white"></path>
  <path d="M15.6785 30.0479C12.7273 23.352 9.77717 16.6562 6.80273 9.90585C10.0495 9.07727 13.2174 8.26955 16.5024 7.4317C16.2706 15.0199 16.0412 22.52 15.8129 30.02L15.6785 30.0467V30.0479Z" fill="white"></path>
  <path d="M50.5684 26.2758V18.0931H53.2473V30.3353C52.1188 30.3353 51.0203 30.3503 49.9241 30.3179C49.7747 30.3132 49.5916 30.1 49.4943 29.9413C47.8836 27.3292 46.2834 24.7102 44.6798 22.0935C44.6311 22.0135 44.5697 21.9429 44.4341 21.7563V30.304H41.7285V18.0665C42.8872 18.0665 44.0205 18.0526 45.1525 18.0839C45.3055 18.0885 45.4955 18.2959 45.594 18.4547C47.171 20.9995 48.7365 23.5525 50.3042 26.1031C50.3494 26.1761 50.3992 26.2468 50.4456 26.3187C50.4861 26.3036 50.5267 26.2897 50.5684 26.2746V26.2758Z" fill="white"></path>
  <path d="M0 23.9998C2.05325 21.8246 4.0868 19.6692 6.18872 17.4419C9.57334 23.396 12.9406 29.3213 16.309 35.2465C16.2904 35.2754 16.2719 35.3044 16.2534 35.3334C10.8537 31.5671 5.45409 27.802 0 23.9998Z" fill="white"></path>
  <path d="M71.6118 18.0839H74.307C74.307 18.3041 74.307 18.5069 74.307 18.7097C74.307 20.9683 74.3 23.228 74.3128 25.4866C74.3197 26.7521 75.0659 27.7475 76.169 28.0199C77.446 28.3362 78.7263 27.5841 79.0485 26.3036C79.1319 25.9733 79.169 25.6234 79.1701 25.2815C79.1806 23.0994 79.1759 20.9173 79.1759 18.7363C79.1759 18.5289 79.1759 18.3214 79.1759 18.0642C80.0183 18.0642 80.8062 18.0491 81.5907 18.0804C81.7066 18.085 81.9117 18.3041 81.9117 18.4246C81.907 20.9323 81.8723 23.4401 81.8595 25.9478C81.8537 26.9352 81.5826 27.8298 81.038 28.6503C80.3138 29.7442 79.242 30.3306 78.0045 30.5334C76.5897 30.7652 75.1691 30.7038 73.8736 29.9552C72.4866 29.1544 71.7254 27.9098 71.6639 26.3476C71.5666 23.8422 71.5944 21.3321 71.5724 18.8232C71.5701 18.5949 71.5967 18.3655 71.6118 18.0839Z" fill="white"></path>
  <path d="M114.858 18.0932H117.529C117.529 18.3261 117.529 18.5324 117.529 18.7375C117.529 20.9764 117.522 23.2165 117.532 25.4554C117.539 26.795 118.286 27.7673 119.471 28.0257C120.714 28.2969 121.928 27.5726 122.261 26.3372C122.349 26.0093 122.389 25.6582 122.391 25.3175C122.401 22.9256 122.396 20.5337 122.396 18.1024H125.075C125.098 18.3493 125.141 18.6077 125.142 18.8673C125.148 21.01 125.17 23.1539 125.137 25.2954C125.117 26.525 124.954 27.7221 124.171 28.7697C123.411 29.7871 122.388 30.3503 121.194 30.5369C119.8 30.7559 118.402 30.6968 117.118 29.9691C115.742 29.1892 114.954 27.9654 114.89 26.4323C114.78 23.7727 114.828 21.1073 114.812 18.4443C114.812 18.3342 114.84 18.2241 114.858 18.0909V18.0932Z" fill="white"></path>
  <path d="M68.7848 30.3376C67.8057 30.3376 66.9019 30.3538 65.9981 30.3214C65.8498 30.3156 65.647 30.1243 65.5764 29.9691C65.2971 29.363 65.0804 28.7279 64.7942 28.1253C64.7189 27.9677 64.4767 27.7939 64.3076 27.7916C62.9773 27.7649 61.646 27.7649 60.3146 27.7939C60.1512 27.7974 59.9149 27.9851 59.843 28.1462C59.5278 28.8589 59.2602 29.5936 58.9728 30.3237H55.959C56.2649 29.5843 56.5418 28.889 56.8373 28.2007C58.222 24.9895 59.6136 21.7818 60.9936 18.5694C61.1431 18.2206 61.3042 18.0086 61.7445 18.0549C62.3169 18.1152 63.0283 17.8904 63.4385 18.158C63.8418 18.4211 63.946 19.1465 64.1755 19.6715C65.6598 23.0669 67.1429 26.4635 68.6249 29.8613C68.6771 29.9807 68.7084 30.1104 68.7825 30.3387L68.7848 30.3376ZM62.2833 21.7586C61.7665 23.0878 61.3169 24.2478 60.8615 25.4171H63.7178C63.2415 24.2026 62.7908 23.0554 62.2821 21.7586H62.2833Z" fill="white"></path>
  <path d="M19.051 39.0139C13.1925 38.65 7.33399 38.2862 1.38281 37.9165C1.90192 35.2534 2.41176 32.6321 2.93434 29.9529C8.36178 32.9589 13.7197 35.9267 19.0765 38.8934C19.0683 38.934 19.0602 38.9745 19.0521 39.0139H19.051Z" fill="white"></path>
  <path d="M128.127 29.0814C128.787 28.3478 129.393 27.6769 130.018 26.9839C130.349 27.2261 130.665 27.4995 131.019 27.707C131.79 28.1578 132.631 28.2586 133.432 27.8623C133.759 27.7 134.057 27.3118 134.191 26.9584C134.374 26.4728 134.023 26.0881 133.607 25.8911C132.972 25.5909 132.281 25.4101 131.648 25.1077C130.846 24.7241 129.945 24.4077 129.324 23.8156C128.14 22.6857 128.288 20.5279 129.455 19.2729C130.357 18.3006 131.495 17.8892 132.787 17.8243C134.306 17.7478 135.734 17.9865 136.988 19.0817C136.412 19.7225 135.846 20.368 135.25 20.9845C135.193 21.0424 134.915 20.9544 134.788 20.8663C133.928 20.2625 133.005 20.1536 132.079 20.6171C131.79 20.762 131.545 21.1444 131.439 21.4712C131.298 21.8977 131.55 22.2789 131.959 22.447C132.75 22.7726 133.56 23.0577 134.368 23.3416C136.305 24.0195 137.075 25.0521 136.995 26.89C136.92 28.5912 135.722 30.0583 133.97 30.4268C132.097 30.8208 130.269 30.7107 128.645 29.5287C128.477 29.407 128.329 29.2575 128.127 29.0825V29.0814Z" fill="white"></path>
  <path d="M8.92538 47.9023C8.0378 45.6147 7.17456 43.3886 6.27539 41.0697C11.8569 40.8437 17.3713 40.6189 22.8845 40.3953C22.8972 40.4416 22.9088 40.4868 22.9216 40.5332C18.2751 42.9795 13.6275 45.427 8.92654 47.9023H8.92538Z" fill="white"></path>
  <path d="M94.35 18.1024V20.4966C93.3569 20.4966 92.3975 20.5175 91.4393 20.4873C90.9978 20.4734 90.89 20.6241 90.8923 21.0505C90.9097 24.1169 90.9016 27.1843 90.9016 30.2947H88.2319V20.5279H84.7812V18.1024H94.35Z" fill="white"></path>
  <path d="M19.3487 52C17.5643 50.6801 15.8413 49.4053 14.043 48.0738C18.2758 45.2497 22.4298 42.4777 26.5849 39.7057C26.6139 39.7324 26.6417 39.7591 26.6707 39.7846C24.242 43.8382 21.8122 47.8907 19.3499 52H19.3487Z" fill="white"></path>
  <path d="M106.859 18.0677V27.7673H111.804V30.2994H104.129C104.12 30.1081 104.102 29.9042 104.101 29.6991C104.099 26.0301 104.108 22.3612 104.086 18.6923C104.083 18.1766 104.222 18.019 104.737 18.0549C105.423 18.1024 106.115 18.0665 106.859 18.0665V18.0677Z" fill="white"></path>
  <path d="M29.1576 37.5143V50.249C27.2388 50.1076 25.3072 49.9662 23.291 49.8179C25.2214 45.6669 27.1194 41.5842 29.0174 37.5027C29.0638 37.5062 29.1113 37.5109 29.1576 37.5143Z" fill="white"></path>
  <path d="M100.031 30.3109H97.2812V18.0688C98.0981 18.0688 98.9197 18.048 99.7366 18.0943C99.8443 18.1001 100.017 18.4513 100.018 18.6436C100.037 21.1514 100.031 23.6591 100.031 26.1669C100.031 27.5332 100.031 28.8995 100.031 30.3109Z" fill="white"></path>
  <path d="M29.9411 34.5801C31.9248 37.7936 33.9085 41.0083 35.9502 44.3145C34.3662 45.1639 32.8263 45.989 31.2203 46.8501C30.7545 42.7211 30.2991 38.679 29.8438 34.6369C29.8762 34.6184 29.9086 34.5987 29.9411 34.5801Z" fill="white"></path>
  <path d="M38.3156 36.6406C37.5161 38.0521 36.7432 39.416 35.931 40.8495C33.6251 37.8806 31.376 34.9834 29.127 32.0863C29.1455 32.0585 29.1652 32.0295 29.1837 32.0017C32.1976 33.5326 35.2114 35.0634 38.3156 36.6406Z" fill="white"></path>
  <path d="M36.5312 29.6921C36.61 31.1639 36.6842 32.5452 36.7653 34.0482C33.6008 32.8453 30.507 31.6703 27.4121 30.494C27.4191 30.4546 27.4249 30.4141 27.4318 30.3747C30.4433 30.1487 33.456 29.9239 36.5312 29.6933V29.6921Z" fill="white"></path>
  <path d="M34.198 28.422C31.1274 28.9945 28.1947 29.5414 25.262 30.0884C25.2469 30.0652 25.2319 30.0432 25.2168 30.02C27.4439 28.4231 29.6698 26.8262 31.9432 25.1969C32.6905 26.2642 33.4182 27.3072 34.198 28.4208V28.422Z" fill="white"></path>
  <path d="M26.3361 23.9175C27.4485 24.3834 28.4994 24.8226 29.6071 25.2861C27.5597 27.1264 25.5597 28.9215 23.561 30.7177C23.5273 30.6968 23.4926 30.6771 23.459 30.6563C24.4115 28.4266 25.3639 26.1958 26.3361 23.9175Z" fill="white"></path>
  <path d="M22.3994 32.0712C22.2441 31.0549 22.0865 30.0386 21.9359 29.0223C21.7864 28.0175 21.6311 27.0128 21.5153 26.0035C21.4967 25.8435 21.6439 25.5318 21.7598 25.5086C22.6728 25.3221 23.5975 25.1876 24.6033 25.0231C23.8872 27.4126 23.1885 29.7431 22.4909 32.0735C22.4608 32.0735 22.4307 32.0712 22.4005 32.07L22.3994 32.0712Z" fill="white"></path>
  <path d="M22.1734 33.5627C20.9567 32.0863 19.7401 30.6111 18.4863 29.0918C19.185 28.4591 19.8617 27.846 20.623 27.1554C21.1966 29.334 21.7481 31.4257 22.2985 33.5186L22.1722 33.5638L22.1734 33.5627Z" fill="white"></path>
  <path d="M22.7658 34.8768C21.1459 34.3124 19.526 33.7481 17.8574 33.1663C18.0892 32.3505 18.3151 31.5532 18.5677 30.6655C20.0404 32.0816 21.446 33.4329 22.8515 34.7841C22.8225 34.8154 22.7947 34.8455 22.7658 34.8768Z" fill="white"></path>
  <path d="M19.2908 36.5629C19.0707 35.8317 18.8644 35.1457 18.6211 34.3356C20.4159 34.7296 22.1065 35.1016 23.7959 35.4725C23.8017 35.5142 23.8075 35.5547 23.8133 35.5965C22.3244 35.9151 20.8354 36.2327 19.2908 36.5629Z" fill="white"></path>
  <path d="M21.9617 38.5017C21.4345 38.0405 20.9467 37.614 20.3789 37.1169C21.9687 36.5699 23.4785 36.0507 24.9883 35.5316C25.001 35.5605 25.0149 35.5895 25.0277 35.6185C24.0115 36.5745 22.9965 37.5294 21.9617 38.5029V38.5017Z" fill="white"></path>
  <path d="M23.0461 38.4275C24.0206 37.2548 24.9035 36.1921 25.7865 35.1294C25.8224 35.1468 25.8583 35.1642 25.8942 35.1816C25.5732 36.3451 25.2523 37.5085 24.9128 38.7358C24.2929 38.6338 23.717 38.5388 23.0449 38.4275H23.0461Z" fill="white"></path>
  <path d="M25.7207 38.1645C25.9026 36.8955 26.0811 35.6498 26.2595 34.4052C26.2943 34.3959 26.3279 34.3855 26.3626 34.3762C26.475 34.7621 26.5863 35.1491 26.7021 35.535C26.7682 35.7552 26.847 35.9708 26.9119 36.1921C27.2015 37.1841 26.8045 37.8419 25.7207 38.1656V38.1645Z" fill="white"></path>
  <path d="M26.4148 33.5777C27.11 34.2186 27.8064 34.8594 28.5352 35.5304C28.2571 35.9221 27.9837 36.3057 27.6558 36.7669C27.1853 35.6822 26.745 34.6682 26.3047 33.6542C26.3406 33.6287 26.3777 33.6032 26.4136 33.5766L26.4148 33.5777Z" fill="white"></path>
  <path d="M26.0068 32.8813C26.8283 33.0504 27.6499 33.2185 28.5038 33.3935V34.7818C27.6139 34.1583 26.782 33.5766 25.9512 32.9937C25.9697 32.9554 25.9883 32.9183 26.0068 32.8801V32.8813Z" fill="white"></path>
</svg>
