<?xml version="1.0" encoding="UTF-8"?>
<svg xmlns="http://www.w3.org/2000/svg" width="17" height="22" viewBox="0 0 17 22" fill="none">
  <path d="M2.36768 21.4135C2.36768 21.4135 4.1387 19.4812 5.68768 19.6359C7.23667 19.7905 7.90014 19.85 8.56493 19.6359C9.22973 19.4218 10.4086 19.0953 12.3277 19.6266C14.2467 20.1579 15.5737 21.4135 15.5737 21.4135H2.36768Z" fill="#134A5D"></path>
  <path d="M0.194824 7.84137C0.194824 7.84137 0.748599 9.7961 0.93231 10.7556C1.11602 11.7152 2.22357 13.8536 4.25232 13.5959C6.28106 13.3381 8.25694 12.1209 8.25694 12.1209C8.25694 12.1209 6.94454 8.98593 5.46956 8.6912C3.99459 8.39647 2.74034 8.58018 2.26058 8.47048C1.78082 8.36078 0.194824 7.84401 0.194824 7.84401V7.84137Z" fill="#134A5D"></path>
  <path d="M9.1107 13.9633C9.1107 13.9633 9.9288 13.9633 10.3716 12.9681C10.8143 11.9729 11.8835 10.7398 13.1748 10.7292C14.4661 10.7186 15.867 10.6076 16.2358 10.0552C16.2358 10.0552 16.6045 14.7391 14.096 15.6246C11.5875 16.5102 9.10938 13.9646 9.10938 13.9646L9.1107 13.9633Z" fill="#134A5D"></path>
  <path d="M5.70215 3.26712C5.70215 3.26712 6.1449 4.18964 6.40263 4.89012C6.66035 5.5906 8.0547 6.53426 9.24155 6.01749C9.24155 6.01749 9.20587 4.18832 8.43137 3.70855C7.65688 3.22879 5.70215 3.2658 5.70215 3.2658V3.26712Z" fill="#134A5D"></path>
  <path d="M9.60767 5.41878C9.60767 5.41878 10.1535 4.2359 10.5566 2.6618C10.776 1.80404 11.9021 0.770508 13.4881 0.770508C13.4881 0.770508 13.9229 3.23011 12.6025 3.9795C11.1276 4.81743 9.60767 5.41746 9.60767 5.41746V5.41878Z" fill="#134A5D"></path>
  <path d="M8.96924 7.23871C8.96924 7.23871 10.1257 7.23871 10.9729 6.90697C11.8201 6.57523 13.0386 6.64925 13.8501 7.93919C13.8501 7.93919 12.8615 9.45116 11.1434 9.08242C9.42521 8.71368 8.96924 7.23871 8.96924 7.23871Z" fill="#134A5D"></path>
  <path d="M8.55428 20.2888C8.7565 19.0649 8.79615 17.8054 8.73535 16.5643C8.67455 15.318 8.42608 14.0519 8.25955 12.7659C8.09567 11.4746 7.95954 10.1477 8.21329 8.85245C8.35075 8.20219 8.59657 7.4885 8.82258 6.88318C9.25344 5.72805 9.80061 5.15048 9.80061 5.15048C9.80061 5.15048 9.00497 6.66907 8.67191 8.45463C8.41815 9.81594 8.54503 11.2764 8.84505 12.6654C9.10938 13.9329 9.45698 15.1845 9.62218 16.4837C9.77021 17.6309 9.8244 18.7926 9.76756 19.9504C9.75831 20.1209 9.74774 20.2795 9.72792 20.4672L8.55164 20.2901L8.55428 20.2888Z" fill="#134A5D"></path>
</svg>
