<svg width="27" height="23" viewBox="0 0 27 23" fill="none" xmlns="http://www.w3.org/2000/svg">
<g clip-path="url(#clip0_2134_20377)">
<path d="M23.9219 7.095V1.7415C23.9219 1.56778 23.783 1.42667 23.6119 1.42667H19.2722C19.2622 1.42667 19.2528 1.42667 19.2434 1.42667C19.0834 1.44185 18.9617 1.57846 18.9628 1.7415V4.67332L14.1963 0.865608C14.131 0.811638 14.0474 0.786901 13.9638 0.797021C13.9068 0.804891 13.8531 0.828503 13.8088 0.865608L0.789062 11.2549M4.0826 11.2549V21.8904C4.0826 22.0641 4.22154 22.2052 4.39259 22.2052H10.5053C10.6763 22.2052 10.8153 22.0647 10.8153 21.8904V17.453C10.8153 15.6557 12.2329 14.2165 14.002 14.2165C15.7711 14.2165 17.1887 15.6557 17.1887 17.453V21.8904C17.1887 22.0641 17.3276 22.2052 17.4987 22.2052H23.6114C23.7824 22.2052 23.9214 22.0647 23.9214 21.8904V9.42495L26.2119 11.2549" stroke="black" stroke-miterlimit="10" stroke-linecap="round" stroke-linejoin="round"/>
</g>
<defs>
<clipPath id="clip0_2134_20377">
<rect width="27" height="23" fill="white"/>
</clipPath>
</defs>
</svg>
