<svg width="26" height="26" viewBox="0 0 26 26" fill="none" xmlns="http://www.w3.org/2000/svg">
<g clip-path="url(#clip0_1942_18985)">
<path d="M24.9423 19.7273L24.9426 19.7275C25.413 19.9886 25.6178 20.5385 25.4326 21.0444L25.4326 21.0444C24.1524 24.5421 20.4168 26.371 16.9082 25.0906C9.30919 22.3173 3.68327 16.6909 0.909478 9.09228C-0.370949 5.58376 1.45843 1.84813 4.95568 0.567933L4.95586 0.567867C5.46179 0.382445 6.01138 0.58686 6.27359 1.05813C7.1581 2.65164 8.04401 4.24655 8.92993 5.84009C9.24191 6.40214 9.16943 7.05858 8.74274 7.53791L8.74245 7.53824L8.65741 7.63394C7.94149 8.43963 7.22613 9.2447 6.51036 10.0489L6.30265 10.2822L6.42132 10.5712C8.06047 14.563 11.4366 17.9391 15.4284 19.5783L15.7173 19.6969L15.9506 19.4893C16.4981 19.0023 17.0457 18.5155 17.5935 18.0286C17.8828 17.7715 18.1721 17.5143 18.4615 17.2571C18.9421 16.8299 19.5983 16.7578 20.1596 17.0697L20.1693 17.0751L20.1702 17.0756C20.6224 17.3268 21.0747 17.5781 21.5271 17.8294C22.6655 18.462 23.8043 19.0947 24.9423 19.7273Z" stroke="white"/>
</g>
<defs>
<clipPath id="clip0_1942_18985">
<rect width="26" height="26" fill="white"/>
</clipPath>
</defs>
</svg>
