<svg width="22" height="36" viewBox="0 0 22 36" fill="none" xmlns="http://www.w3.org/2000/svg">
<g clip-path="url(#clip0_1942_18980)">
<path d="M4.10547 35.116H17.8931" stroke="white" stroke-miterlimit="10"/>
<path fill-rule="evenodd" clip-rule="evenodd" d="M11.0001 0.883972C16.5817 0.883972 21.1272 5.43734 21.1272 11.0297C21.1272 15.9827 18.5755 18.6989 15.8642 23.0924L11.0001 30.9215L6.13602 23.0924C3.42476 18.6989 0.873047 15.9827 0.873047 11.0297C0.873047 5.43788 5.41805 0.883972 11.0001 0.883972ZM11.0001 5.03827C14.1103 5.03827 16.5817 7.59468 16.5817 10.6301C16.5817 13.6655 14.1097 16.2219 11.0001 16.2219C7.89052 16.2219 5.41859 13.7454 5.41859 10.6301C5.41859 7.51476 7.89052 5.03827 11.0001 5.03827Z" stroke="white" stroke-miterlimit="10"/>
</g>
<defs>
<clipPath id="clip0_1942_18980">
<rect width="22" height="36" fill="white"/>
</clipPath>
</defs>
</svg>
