<svg width="34" height="34" viewBox="0 0 34 34" fill="none" xmlns="http://www.w3.org/2000/svg">
<g clip-path="url(#clip0_2445_1290)">
<path d="M33.6905 32.2004L25.0022 23.5122C27.1533 21.0177 28.4599 17.7749 28.4599 14.23C28.4599 6.38288 22.0754 0 14.23 0C6.3845 0 0 6.3845 0 14.23C0 22.0754 6.3845 28.4599 14.23 28.4599C17.7749 28.4599 21.0177 27.1533 23.5122 25.0022L32.2004 33.6905C32.4057 33.8958 32.6756 34 32.9447 34C33.2138 34 33.4836 33.8958 33.6889 33.6905C34.1018 33.2792 34.1018 32.6117 33.6889 32.2013L33.6905 32.2004ZM14.2308 26.3517C7.5473 26.3517 2.10904 20.9143 2.10904 14.23C2.10904 7.54568 7.54649 2.10823 14.2308 2.10823C20.9151 2.10823 26.3525 7.54568 26.3525 14.23C26.3525 20.9143 20.9151 26.3517 14.2308 26.3517Z" fill="#01B5DD"/>
</g>
<defs>
<clipPath id="clip0_2445_1290">
<rect width="34" height="34" fill="white"/>
</clipPath>
</defs>
</svg>
