<svg width="27" height="23" viewBox="0 0 27 23" fill="none" xmlns="http://www.w3.org/2000/svg">
<g clip-path="url(#clip0_2134_20421)">
<path d="M13.4185 10.2078C13.1353 10.2294 12.8723 10.3597 12.6842 10.5725C12.4962 10.7845 12.3995 11.0614 12.4134 11.3444C12.4281 11.6266 12.5527 11.8926 12.7608 12.0854C12.969 12.2782 13.2444 12.3815 13.5284 12.3745C13.8124 12.3676 14.0824 12.2496 14.2805 12.0476C14.4786 11.8448 14.59 11.5734 14.59 11.2904C14.5776 10.992 14.4484 10.7113 14.2287 10.5085C14.0089 10.3057 13.718 10.1977 13.4193 10.2085L13.4185 10.2078Z" stroke="black" stroke-miterlimit="10"/>
<path d="M2.32256 12.2904C2.32256 12.2904 12.3458 14.9422 13.6225 14.9422C14.8992 14.9422 21.5898 13.3267 24.6763 12.3235C25.2489 12.1369 25.6126 11.5894 25.6126 11.0327V5.13846C25.6017 4.81075 25.4609 4.50077 25.2203 4.27561C24.9796 4.05122 24.6608 3.93016 24.3312 3.94018H2.6661C2.33726 3.93093 2.0177 4.05122 1.77706 4.27561C1.5372 4.5 1.39637 4.81075 1.38477 5.13846V11.0335C1.38477 11.5733 1.80724 11.9835 2.32101 12.2911C2.32101 12.2911 2.32101 16.9015 2.32101 19.5009C2.32101 20.0221 2.55932 20.5357 2.55932 20.5357C2.73342 20.8619 2.9934 21.1341 3.31064 21.3245C3.62788 21.5142 3.99154 21.6152 4.36217 21.6152H22.6321C23.1737 21.6152 23.6929 21.4001 24.0759 21.0184C24.4589 20.6367 24.674 20.1193 24.674 19.5795V15.8111" stroke="black" stroke-linecap="round" stroke-linejoin="round"/>
<path d="M6 4C6 2.34334 7.17992 1 8.63505 1H18.365C19.8201 1 21 2.34334 21 4" stroke="black" stroke-miterlimit="10"/>
</g>
<defs>
<clipPath id="clip0_2134_20421">
<rect width="27" height="23" fill="white"/>
</clipPath>
</defs>
</svg>
